<svg xmlns="http://www.w3.org/2000/svg" width="33" height="32" fill="black">
<path fill-rule="evenodd" d="M21.077 4.36c2.54-.757 5.562-.446 8.114 2.154l.011.01.01.012c3.288 3.507 2.33 8.278.01 11.753-.962 1.44-3.105 3.715-5.208 5.827a228.792 228.792 0 0 1-5.546 5.361 2.642 2.642 0 0 1-3.602.013 200.63 200.63 0 0 1-5.55-5.321c-2.097-2.1-4.242-4.385-5.21-5.89C1.8 14.822.817 9.9 4.141 6.514l.013-.014c2.612-2.585 5.628-2.868 8.154-2.092 1.737.534 3.27 1.572 4.341 2.704a10.147 10.147 0 0 1 4.427-2.752Z" clip-rule="evenodd" opacity=".24"/></svg>