<svg xmlns="http://www.w3.org/2000/svg" width="33" height="32" fill="none"><path fill="black" fill-rule="evenodd" d="M23 9.333V6.667a6.667 6.667 0 0 0-13.333 0v2.666H5.453c-.17 0-.372 0-.548.015-.202.017-.496.06-.8.225a2 2 0 0 0-.88.95c-.14.315-.161.612-.162.815-.002.176.014.377.027.547l.797 10.36c.077.998.14 1.823.245 2.495.11.7.28 1.338.624 1.933a5.333 5.333 0 0 0 2.304 2.134c.62.297 1.269.417 1.975.473.678.053 1.506.053 2.506.053h9.585c1 0 1.828 0 2.506-.053.706-.056 1.356-.176 1.975-.474a5.333 5.333 0 0 0 2.304-2.133c.345-.595.514-1.233.624-1.933.105-.672.168-1.497.245-2.494l.797-10.361c.013-.17.029-.37.027-.547a2.016 2.016 0 0 0-.162-.816 2 2 0 0 0-.88-.95 2.015 2.015 0 0 0-.8-.224 6.8 6.8 0 0 0-.548-.015H23Zm-10.666 0h8V6.667a4 4 0 1 0-8 0v2.666Z" clip-rule="evenodd" opacity=".24"/></svg>