<svg xmlns="http://www.w3.org/2000/svg" width="33" height="32" fill="black"><path fill="black" fill-rule="evenodd" d="M15.517 1.41a1.8 1.8 0 0 1 1.632 0c.507.258.73.688.778.78l.004.007c.058.11.11.235.132.29l.006.013 3.291 7.914 8.544.685h.014c.06.005.194.016.317.037l.008.001c.102.017.58.097.982.5a1.8 1.8 0 0 1 .504 1.552 1.817 1.817 0 0 1-.5.981l-.007.006c-.087.09-.19.176-.234.215l-.012.01-6.509 5.575 1.989 8.337.003.015a3.624 3.624 0 0 1 .065.32c.015.102.087.581-.171 1.088a1.8 1.8 0 0 1-1.32.96 1.816 1.816 0 0 1-1.089-.174l-.007-.003a3.628 3.628 0 0 1-.277-.157l-.013-.008-7.314-4.468-7.315 4.468-.012.008c-.05.03-.166.101-.277.157l-.008.003a1.816 1.816 0 0 1-1.088.174 1.8 1.8 0 0 1-1.32-.96 1.817 1.817 0 0 1-.17-1.096c.018-.124.05-.255.063-.312l.004-.015 1.988-8.337-6.509-5.575-.011-.01c-.045-.039-.148-.126-.235-.215l-.006-.006c-.072-.074-.412-.419-.5-.981a1.8 1.8 0 0 1 .504-1.553 1.816 1.816 0 0 1 .99-.5c.123-.021.257-.031.316-.036l.015-.001 8.543-.685L14.597 2.5l.006-.014c.022-.054.074-.179.132-.29l.003-.007c.048-.091.271-.521.779-.78Z" clip-rule="evenodd" opacity=".24"/></svg>